Coordinates
version=1
nRows=17
nColumns=24
inDegrees=yes

Units are S.I. units (second, meters, Newtons, ...)
Angles are in degrees.

endheader
time	pelvis_tilt	pelvis_list	pelvis_rotation	pelvis_tx	pelvis_ty	pelvis_tz	hip_flexion_r	hip_adduction_r	hip_rotation_r	knee_angle_r	ankle_angle_r	subtalar_angle_r	mtp_angle_r	hip_flexion_l	hip_adduction_l	hip_rotation_l	knee_angle_l	ankle_angle_l	subtalar_angle_l	mtp_angle_l	lumbar_extension	lumbar_bending	lumbar_rotation
      4.03000000	     -9.42613693	    -10.14844912	      0.60327523	     -0.78677849	     -0.01839923	      0.62747823	     14.14509525	     13.17124514	     -5.33738042	    -10.65262815	     -0.04409285	     -3.24963269	      3.48943368	     27.87613770	    -16.02868679	     -4.65164813	    -67.68622622	     -6.63363780	     17.33965367	     32.42981743	      7.51024041	     11.37744172	     -0.72770024
      4.03500000	     -9.40277664	     -9.87922313	      0.25881573	     -0.78016560	     -0.01756470	      0.62792740	     13.26218511	     13.02609069	     -4.83043921	    -10.02214092	      0.07918145	     -3.06736126	      3.53337838	     28.63225265	    -15.84976271	     -5.08506998	    -67.33213069	     -6.48693016	     17.85533884	     32.60483261	      7.39374809	     11.15407070	     -0.29265519
      4.04000000	     -9.37682571	     -9.61122168	     -0.08911441	     -0.77358151	     -0.01682718	      0.62837172	     12.39770261	     12.86781608	     -4.33661114	     -9.42311208	      0.21785142	     -2.86612783	      3.56201638	     29.37079422	    -15.67153753	     -5.51812582	    -66.91481046	     -6.35586221	     18.35218544	     32.72744453	      7.26986196	     10.93261347	      0.14989004
      4.04500000	     -9.35999001	     -9.33606965	     -0.42715347	     -0.76699343	     -0.01617813	      0.62879809	     11.56167399	     12.68554895	     -3.88708697	     -8.84930391	      0.35680679	     -2.65925677	      3.57810368	     30.09695010	    -15.47589708	     -5.93892981	    -66.42043149	     -6.21813363	     18.83546781	     32.80662680	      7.16290153	     10.69911332	      0.57268011
      4.05000000	     -9.31311341	     -9.06802157	     -0.79710226	     -0.76042800	     -0.01559859	      0.62925545	     10.70341718	     12.50505879	     -3.38053311	     -8.29383816	      0.51092483	     -2.45291751	      3.58870122	     30.76136544	    -15.31295443	     -6.40807081	    -65.86604625	     -6.09268490	     19.22456692	     32.82593959	      7.01140221	     10.47894524	      1.02900371
      4.05500000	     -9.22651245	     -8.81869570	     -1.17634440	     -0.75388799	     -0.01508416	      0.62969734	      9.81064110	     12.33099703	     -2.82041999	     -7.74901833	      0.66432837	     -2.27778067	      3.58105830	     31.36308746	    -15.18238877	     -6.90412958	    -65.25869806	     -5.96934019	     19.50014234	     32.75918162	      6.80922553	     10.28367401	      1.49205632
      4.06000000	     -9.19451343	     -8.55821158	     -1.51844133	     -0.74734450	     -0.01469594	      0.63012484	      9.00688131	     12.12620932	     -2.38490543	     -7.23995884	      0.82298003	     -2.07983519	      3.58767579	     32.01148479	    -15.01025806	     -7.33175162	    -64.57067114	     -5.84324736	     19.82142709	     32.68304763	      6.68113319	     10.06080385	      1.90613930
      4.06500000	     -9.09183020	     -8.32986678	     -1.89661272	     -0.74085058	     -0.01435430	      0.63054875	      8.13297267	     11.94412260	     -1.85716484	     -6.74200487	      0.99699634	     -1.88306433	      3.59747285	     32.55687245	    -14.90277501	     -7.82121825	    -63.84333978	     -5.70507452	     19.97557404	     32.47443915	      6.45595107	      9.88326773	      2.36132307
      4.07000000	     -9.04719305	     -8.08573816	     -2.23753758	     -0.73434488	     -0.01413581	      0.63096076	      7.35054103	     11.73026159	     -1.43945917	     -6.27878244	      1.17470123	     -1.68233356	      3.62519079	     33.14783774	    -14.75220547	     -8.25011633	    -63.03118211	     -5.57816179	     20.16319500	     32.27219452	      6.30946477	      9.67250971	      2.76615595
      4.07500000	     -8.96749929	     -7.86387343	     -2.59097821	     -0.72787449	     -0.01398843	      0.63136224	      6.54533355	     11.52678664	     -0.99424731	     -5.83767862	      1.37193598	     -1.46923868	      3.67655409	     33.67744978	    -14.63602246	     -8.69847525	    -62.16912201	     -5.43597075	     20.24023252	     31.98233149	      6.11415795	      9.48829239	      3.18164231
      4.08000000	     -8.89580079	     -7.65607644	     -2.91469495	     -0.72143402	     -0.01396243	      0.63171588	      5.77034404	     11.32274977	     -0.58256070	     -5.42161144	      1.59236210	     -1.27071686	      3.74658326	     34.20709112	    -14.51875033	     -9.11449165	    -61.25286234	     -5.28489173	     20.27773318	     31.65595487	      5.92578704	      9.31259758	      3.55330828
      4.08500000	     -8.75725781	     -7.49156575	     -3.24626005	     -0.71499170	     -0.01394518	      0.63206319	      4.93359523	     11.15325155	     -0.16685925	     -5.02322338	      1.78181796	     -1.09999258	      3.85552459	     34.63080815	    -14.44651106	     -9.51877402	    -60.27898873	     -5.09733579	     20.27474180	     31.13793165	      5.66560355	      9.18371388	      3.94982617
      4.09000000	     -8.71476918	     -7.28936224	     -3.54420564	     -0.70853321	     -0.01408391	      0.63239607	      4.23393732	     10.93758766	      0.17776256	     -4.67300558	      2.00395570	     -0.93177522	      3.95963911	     35.13475227	    -14.31238300	     -9.88653433	    -59.21147531	     -4.97041276	     20.23713610	     30.72884396	      5.52248690	      9.00118828	      4.29251574
      4.09500000	     -8.58962209	     -7.14055975	     -3.83406064	     -0.70214279	     -0.01427716	      0.63265096	      3.45922154	     10.75928742	      0.55047360	     -4.34137514	      2.25081677	     -0.77408454	      4.11269023	     35.53383449	    -14.22841969	    -10.24413946	    -58.11111928	     -4.77051592	     20.18871422	     30.17375003	      5.27213143	      8.87943665	      4.62633845
      4.10000000	     -8.58392334	     -6.96699683	     -4.06249586	     -0.69569592	     -0.01466681	      0.63287594	      2.84394171	     10.55531904	      0.85104858	     -4.06011480	      2.54924323	     -0.65108066	      4.21079055	     36.04648770	    -14.07441651	    -10.51934030	    -56.91298816	     -4.65217542	     20.09860607	     29.80699677	      5.18052576	      8.71365801	      4.86236024
      4.10500000	     -8.45916005	     -6.81262495	     -4.34341587	     -0.68929998	     -0.01494745	      0.63310019	      2.11996695	     10.35790890	      1.16987004	     -3.81093797	      2.77744404	     -0.51145074	      4.34266895	     36.36505614	    -13.96944141	    -10.86405911	    -55.63830020	     -4.49372296	     20.00144311	     29.23795671	      4.93207926	      8.57628173	      5.20670318
      4.11000000	     -8.43220557	     -6.68218740	     -4.52666039	     -0.68289483	     -0.01550121	      0.63320712	      1.52775150	     10.18109261	      1.46423010	     -3.60727289	      3.12088375	     -0.42745683	      4.44334489	     36.80713124	    -13.81729512	    -11.06053622	    -54.30897685	     -4.35158772	     19.94278055	     28.82372766	      4.81190089	      8.45363507	      5.38034733
